<?xml version="1.0" encoding="UTF-8" standalone="no"?>
<svg
   width="16"
   height="16"
   version="1.1"
   id="svg3"
   sodipodi:docname="FDIntro.svg"
   inkscape:version="1.4 (86a8ad7, 2024-10-11)"
   xmlns:inkscape="http://www.inkscape.org/namespaces/inkscape"
   xmlns:sodipodi="http://sodipodi.sourceforge.net/DTD/sodipodi-0.dtd"
   xmlns="http://www.w3.org/2000/svg"
   xmlns:svg="http://www.w3.org/2000/svg">
  <defs
     id="defs3">
    <inkscape:path-effect
       effect="fillet_chamfer"
       id="path-effect4"
       is_visible="true"
       lpeversion="1"
       nodesatellites_param="F,0,1,1,0,0.69986199,0,1 @ F,0,0,1,0,0.69986199,0,1 @ F,0,1,1,0,0.69986199,0,1"
       radius="0"
       unit="px"
       method="auto"
       mode="F"
       chamfer_steps="1"
       flexible="false"
       use_knot_distance="true"
       apply_no_radius="true"
       apply_with_radius="true"
       only_selected="false"
       hide_knots="false" />
    <inkscape:path-effect
       effect="fillet_chamfer"
       id="path-effect4-0"
       is_visible="true"
       lpeversion="1"
       nodesatellites_param="F,0,1,1,0,0.69986199,0,1 @ F,0,0,1,0,0.69986199,0,1 @ F,0,1,1,0,0.69986199,0,1"
       radius="0"
       unit="px"
       method="auto"
       mode="F"
       chamfer_steps="1"
       flexible="false"
       use_knot_distance="true"
       apply_no_radius="true"
       apply_with_radius="true"
       only_selected="false"
       hide_knots="false" />
  </defs>
  <sodipodi:namedview
     id="namedview3"
     pagecolor="#505050"
     bordercolor="#eeeeee"
     borderopacity="1"
     inkscape:showpageshadow="0"
     inkscape:pageopacity="0"
     inkscape:pagecheckerboard="0"
     inkscape:deskcolor="#505050"
     inkscape:zoom="6.3046875"
     inkscape:cx="-25.457249"
     inkscape:cy="16.099133"
     inkscape:window-width="1920"
     inkscape:window-height="1009"
     inkscape:window-x="-8"
     inkscape:window-y="-8"
     inkscape:window-maximized="1"
     inkscape:current-layer="svg3" />
  <g
     fill="#8da5f3"
     id="g3"
     transform="matrix(-1,0,0,1,17,0)">
    <path
       fill-opacity=".4"
       d="M 7,0 A 2,2 0 0 0 5,2 h 7 a 2,2 0 0 1 2,2 v 6 A 2,2 0 0 0 16,8 V 2 A 2,2 0 0 0 14,0 Z"
       id="path1"
       style="opacity:0.99;fill:#1a1918;fill-opacity:1" />
    <path
       fill-opacity=".6"
       d="M 5,2 A 2,2 0 0 0 3,4 h 7 a 2,2 0 0 1 2,2 v 7 a 2,2 0 0 0 2,-2 V 4 A 2,2 0 0 0 12,2 Z"
       id="path2"
       style="fill:#4f4a45;fill-opacity:1" />
    <path
       d="M 3,4 C 1.8954305,4 1,4.8954305 1,6 v 7 c 0,1.104569 0.8954305,2 2,2 h 7 c 1.104569,0 2,-0.895431 2,-2 V 6 C 12,4.8954305 11.104569,4 10,4 Z"
       id="path3"
       sodipodi:nodetypes="sssssssss"
       style="fill:#ed7d31;fill-opacity:1" />
  </g>
  <path
     id="rect4"
     style="fill:#f6f1ee;fill-opacity:1;stroke:none;stroke-width:1.709;stroke-linecap:butt;stroke-dasharray:none;stroke-opacity:1"
     d="m 10.971532,5.9309998 3.405914,1.74926 a 0.3594454,0.3594454 90.000002 0 1 0,0.6394804 L 10.971532,10.069 A 0.4273251,0.4273251 31.407605 0 1 10.348978,9.688878 V 6.3111216 a 0.42732507,0.42732507 148.5924 0 1 0.622554,-0.3801218 z"
     sodipodi:nodetypes="cccc"
     transform="matrix(1.185495,0,0,1.185495,-3.7171043,0.01604022)"
     inkscape:original-d="M 10.348978,5.6112596 15,8 10.348978,10.38874 Z"
     inkscape:path-effect="#path-effect4" />
</svg>
